<svg version="1.1" viewBox="0.0 0.0 960.0 720.0" fill="none" stroke="none" stroke-linecap="square" stroke-miterlimit="10" xmlns:xlink="http://www.w3.org/1999/xlink" xmlns="http://www.w3.org/2000/svg"><clipPath id="p.0"><path d="m0 0l960.0 0l0 720.0l-960.0 0l0 -720.0z" clip-rule="nonzero"/></clipPath><g clip-path="url(#p.0)"><path fill="#000000" fill-opacity="0.0" d="m0 0l960.0 0l0 720.0l-960.0 0z" fill-rule="evenodd"/><path fill="#000000" fill-opacity="0.0" d="m278.16272 301.04724l0 0c0 -60.412125 48.973724 -109.38582 109.38583 -109.38582l0 0c29.010925 0 56.83365 11.524536 77.34747 32.03836c20.513824 20.513824 32.03836 48.336533 32.03836 77.34746l0 0c0 60.41214 -48.973694 109.38583 -109.38583 109.38583l0 0c-60.41211 0 -109.38583 -48.973694 -109.38583 -109.38583z" fill-rule="evenodd"/><path stroke="#000000" stroke-width="1.0" stroke-linejoin="round" stroke-linecap="butt" d="m278.16272 301.04724l0 0c0 -60.412125 48.973724 -109.38582 109.38583 -109.38582l0 0c29.010925 0 56.83365 11.524536 77.34747 32.03836c20.513824 20.513824 32.03836 48.336533 32.03836 77.34746l0 0c0 60.41214 -48.973694 109.38583 -109.38583 109.38583l0 0c-60.41211 0 -109.38583 -48.973694 -109.38583 -109.38583z" fill-rule="evenodd"/><path fill="#000000" fill-opacity="0.0" d="m316.32547 241.69817l0 0c0 -10.306412 19.551392 -18.661423 43.66928 -18.661423l0 0c24.11789 0 43.66928 8.355011 43.66928 18.661423l0 0c0 10.306412 -19.551392 18.661423 -43.66928 18.661423l0 0c-24.11789 0 -43.66928 -8.355011 -43.66928 -18.661423z" fill-rule="evenodd"/><path stroke="#6aa84f" stroke-width="1.0" stroke-linejoin="round" stroke-linecap="butt" d="m316.32547 241.69817l0 0c0 -10.306412 19.551392 -18.661423 43.66928 -18.661423l0 0c24.11789 0 43.66928 8.355011 43.66928 18.661423l0 0c0 10.306412 -19.551392 18.661423 -43.66928 18.661423l0 0c-24.11789 0 -43.66928 -8.355011 -43.66928 -18.661423z" fill-rule="evenodd"/><path fill="#000000" fill-opacity="0.0" d="m390.9449 352.15222l0 0c0 -19.78656 12.366821 -35.82675 27.62204 -35.82675l0 0c7.325836 0 14.351593 3.7745972 19.531738 10.493408c5.1801453 6.718811 8.0903015 15.831512 8.0903015 25.333344l0 0c0 19.78659 -12.366791 35.826782 -27.62204 35.826782l0 0c-15.2552185 0 -27.62204 -16.040192 -27.62204 -35.826782z" fill-rule="evenodd"/><path stroke="#3c78d8" stroke-width="1.0" stroke-linejoin="round" stroke-linecap="butt" d="m390.9449 352.15222l0 0c0 -19.78656 12.366821 -35.82675 27.62204 -35.82675l0 0c7.325836 0 14.351593 3.7745972 19.531738 10.493408c5.1801453 6.718811 8.0903015 15.831512 8.0903015 25.333344l0 0c0 19.78659 -12.366791 35.826782 -27.62204 35.826782l0 0c-15.2552185 0 -27.62204 -16.040192 -27.62204 -35.826782z" fill-rule="evenodd"/><path fill="#000000" fill-opacity="0.0" d="m542.0 450.0l0.94488525 -281.25983" fill-rule="evenodd"/><path stroke="#000000" stroke-width="1.0" stroke-linejoin="round" stroke-linecap="butt" stroke-dasharray="8.0,3.0" d="m542.0 450.0l0.94488525 -281.25983" fill-rule="evenodd"/><path fill="#93c47d" d="m621.853 239.37534l0 0c0 -2.5744324 2.086975 -4.6614227 4.661438 -4.6614227l0 0c1.2362671 0 2.421875 0.49110413 3.2960815 1.3652954c0.87420654 0.8741913 1.3652954 2.0598297 1.3652954 3.2961273l0 0c0 2.574417 -2.086975 4.6614075 -4.661377 4.6614075l0 0c-2.574463 0 -4.661438 -2.0869904 -4.661438 -4.6614075z" fill-rule="evenodd"/><path fill="#3c78d8" d="m617.7874 372.5328l0 0c0 -2.5744324 2.086975 -4.6614075 4.661377 -4.6614075l0 0c1.2363281 0 2.421936 0.49111938 3.2961426 1.3652954c0.87420654 0.874176 1.3652954 2.0598145 1.3652954 3.296112l0 0c0 2.5744324 -2.086975 4.6614075 -4.661438 4.6614075l0 0c-2.5744019 0 -4.661377 -2.086975 -4.661377 -4.6614075z" fill-rule="evenodd"/><path fill="#93c47d" d="m355.33334 241.69817l0 0c0 -2.5744324 2.086975 -4.6614227 4.6614075 -4.6614227l0 0c1.2362976 0 2.421936 0.49111938 3.296112 1.3652954c0.87420654 0.8741913 1.3652954 2.059845 1.3652954 3.2961273l0 0c0 2.5744324 -2.086975 4.6614075 -4.6614075 4.6614075l0 0c-2.5744324 0 -4.6614075 -2.086975 -4.6614075 -4.6614075z" fill-rule="evenodd"/><path fill="#3c78d8" d="m413.90552 352.15222l0 0c0 -2.5744324 2.086975 -4.6614075 4.6614075 -4.6614075l0 0c1.2362976 0 2.421936 0.49111938 3.296112 1.3652954c0.87420654 0.874176 1.3652954 2.059845 1.3652954 3.296112l0 0c0 2.5744324 -2.086975 4.661438 -4.6614075 4.661438l0 0c-2.5744324 0 -4.6614075 -2.0870056 -4.6614075 -4.661438z" fill-rule="evenodd"/><path fill="#000000" fill-opacity="0.0" d="m649.8583 167.91602l45.795288 0l0 45.795273l-45.795288 0z" fill-rule="evenodd"/><path fill="#000000" d="m686.3895 200.49539q0.421875 0 0.578125 0.390625q0.15625 0.375 0.015625 1.046875q-0.265625 1.25 -1.03125 1.984375q-1.96875 1.859375 -3.71875 2.875q-1.75 1.0 -3.625 1.0q-2.859375 0 -3.953125 -1.6875q-1.09375 -1.703125 -1.296875 -4.96875l-0.25 -3.96875l-9.53125 9.34375q-0.8125 0.8125 -1.53125 1.046875q-0.71875 0.234375 -1.625 0.234375q-0.890625 0 -1.421875 -0.328125q-0.515625 -0.34375 -0.390625 -0.953125q0.171875 -0.796875 1.328125 -1.8125l12.875 -11.8125l-0.21875 -3.75q-0.1875 -2.625 -0.859375 -3.671875q-0.671875 -1.0625 -1.828125 -1.0625q-1.6875 0 -4.5 2.46875q-0.453125 0.40625 -0.9375 0.40625q-0.484375 0 -0.75 -0.359375q-0.25 -0.375 -0.125 -0.9375q0.203125 -0.96875 1.375 -2.09375q1.640625 -1.53125 3.359375 -2.453125q1.734375 -0.9375 3.84375 -0.9375q2.28125 0 3.4375 1.4375q1.171875 1.421875 1.359375 4.578125l0.171875 2.25l7.0625 -6.828125q0.796875 -0.765625 1.53125 -1.078125q0.75 -0.328125 1.703125 -0.328125q0.875 0 1.296875 0.328125q0.421875 0.3125 0.296875 0.890625q-0.15625 0.765625 -1.234375 1.765625l-10.359375 9.59375l0.4375 6.53125q0.125 1.703125 0.3125 2.59375q0.1875 0.890625 0.65625 1.328125q0.484375 0.4375 1.40625 0.4375q0.984375 0 2.203125 -0.703125q1.234375 -0.71875 2.984375 -2.34375q0.46875 -0.453125 0.953125 -0.453125z" fill-rule="nonzero"/><path fill="#000000" fill-opacity="0.0" d="m260.29135 167.91602l45.795258 0l0 45.795273l-45.795258 0z" fill-rule="evenodd"/><path fill="#000000" d="m297.10385 200.49539q0.421875 0 0.578125 0.390625q0.171875 0.375 0.03125 1.046875q-0.265625 1.25 -1.03125 1.984375q-2.265625 2.15625 -4.125 3.015625q-1.859375 0.859375 -4.21875 0.859375q-1.671875 0 -3.0 -0.40625q-1.3125 -0.421875 -3.15625 -1.25q-1.578125 -0.734375 -2.8125 -1.1875q-1.8125 1.59375 -3.140625 2.21875q-1.3125 0.625 -2.609375 0.625q-1.765625 0 -2.65625 -0.8125q-0.875 -0.8125 -0.59375 -2.125q0.203125 -1.0 1.03125 -1.828125q0.84375 -0.828125 2.125 -1.3125q1.28125 -0.484375 2.859375 -0.484375q0.890625 0 1.34375 0.03125q7.921875 -7.796875 14.828125 -16.46875q-2.671875 -0.484375 -5.515625 -0.484375q-3.671875 0 -5.5625 0.859375q-1.890625 0.84375 -2.265625 2.65625q-0.125 0.546875 -0.078125 0.9375q0.046875 0.375 0.1875 0.890625q0.171875 0.578125 0.109375 0.828125q-0.125 0.640625 -0.8125 1.078125q-0.6875 0.4375 -1.453125 0.4375q-0.796875 0 -1.21875 -0.484375q-0.484375 -0.546875 -0.65625 -1.484375q-0.15625 -0.953125 0.09375 -2.140625q0.78125 -3.734375 4.265625 -5.53125q3.484375 -1.796875 8.578125 -1.796875q2.53125 0 5.09375 0.296875q2.578125 0.28125 4.765625 0.921875q0.890625 0.265625 1.109375 0.734375q0.234375 0.453125 0.078125 1.1875q-0.1875 0.859375 -0.734375 1.34375q-0.546875 0.484375 -1.34375 0.484375l-0.234375 0q-4.65625 5.625 -9.296875 10.8125q-3.71875 4.125 -5.1875 5.59375q1.765625 0.421875 3.0625 0.78125q1.59375 0.4375 2.578125 0.65625q1.0 0.203125 1.78125 0.203125q1.84375 0 3.296875 -0.625q1.46875 -0.625 2.953125 -2.0q0.484375 -0.453125 0.953125 -0.453125z" fill-rule="nonzero"/><path fill="#000000" fill-opacity="0.0" d="m621.0 236.0c-29.598206 -29.598236 -78.141785 -37.0 -120.0 -37.0c-44.4722 0 -92.99689 5.331253 -130.0 30.0" fill-rule="evenodd"/><path stroke="#000000" stroke-width="1.0" stroke-linejoin="round" stroke-linecap="butt" d="m621.0 236.0c-29.598206 -29.598236 -78.141785 -37.0 -120.0 -37.0c-22.236084 0 -45.48532 1.3328247 -67.8009 5.749222c-11.157806 2.2082062 -22.082184 5.187317 -32.529816 9.156143c-5.223816 1.984436 -10.32843 4.2162933 -15.283447 6.7229614c-2.477539 1.2533112 -4.9176025 2.5753326 -7.3165283 3.9694824c-1.1994629 0.697052 -2.3886108 1.4121552 -3.5669556 2.1457367l-0.62612915 0.39308167" fill-rule="evenodd"/><path fill="#000000" stroke="#000000" stroke-width="1.0" stroke-linecap="butt" d="m373.87625 227.13663l0.33236694 -1.5552826l-1.9816895 2.6237946l3.2045898 -0.73612976z" fill-rule="evenodd"/><path fill="#000000" fill-opacity="0.0" d="m618.0866 367.76096c-14.802368 -29.604797 -60.900818 -32.0 -94.0 -32.0c-30.595917 0 -63.634155 -1.6829224 -91.0 12.0" fill-rule="evenodd"/><path stroke="#000000" stroke-width="1.0" stroke-linejoin="round" stroke-linecap="butt" d="m618.0866 367.76096c-14.802429 -29.604797 -60.900818 -32.0 -94.0 -32.0c-15.297974 0 -31.206482 -0.42074585 -46.711273 0.8688965c-7.7523804 0.6448364 -15.403839 1.7172546 -22.827545 3.483612c-3.7118835 0.8831787 -7.3668213 1.9398804 -10.948944 3.2033691c-1.7910767 0.6317444 -3.5639343 1.3151855 -5.3166504 2.0544739c-0.4381714 0.18484497 -0.87509155 0.37316895 -1.3106995 0.56500244c-0.21780396 0.09597778 -0.43527222 0.19277954 -0.6524658 0.2904663l-0.13739014 0.0625" fill-rule="evenodd"/><path fill="#000000" stroke="#000000" stroke-width="1.0" stroke-linecap="butt" d="m436.18164 346.2893l0.5326843 -1.4985352l-2.3074646 2.3424072l3.2733154 -0.31118774z" fill-rule="evenodd"/><path fill="#000000" fill-opacity="0.0" d="m411.4987 372.1601c34.77249 52.201538 136.05502 72.225006 196.5054 45.0" fill-rule="evenodd"/><path stroke="#3c78d8" stroke-width="1.0" stroke-linejoin="round" stroke-linecap="butt" stroke-dasharray="1.0,3.0" d="m411.4987 372.1601c17.38623 26.100769 51.400024 44.157013 88.623474 52.284943c18.611786 4.0639954 38.02597 5.6458435 56.56534 4.510193c9.269714 -0.5678406 18.320679 -1.8150635 26.94336 -3.7710876c4.3113403 -0.97802734 8.515564 -2.1332397 12.586487 -3.4693604c2.0354614 -0.6680603 4.0375977 -1.3813171 6.003174 -2.1403198c0.49139404 -0.18969727 0.9805298 -0.38232422 1.4672852 -0.5777893c0.24334717 -0.097717285 0.48614502 -0.19613647 0.72839355 -0.2953186l0.4416504 -0.18258667" fill-rule="evenodd"/><path fill="#3c78d8" stroke="#3c78d8" stroke-width="1.0" stroke-linecap="butt" d="m604.85785 418.51877l-0.5866089 1.4782715l2.390747 -2.2573547l-3.2824097 0.19250488z" fill-rule="evenodd"/><path fill="#cfe2f3" d="m405.59064 368.46646l2.2157288 -2.2157288l2.3537292 2.3537292l2.3537598 -2.3537292l2.2157288 2.2157288l-2.3537292 2.3537598l2.3537292 2.3537292l-2.2157288 2.2157288l-2.3537598 -2.3537292l-2.3537292 2.3537292l-2.2157288 -2.2157288l2.3537292 -2.3537292z" fill-rule="evenodd"/><path stroke="#000000" stroke-width="1.0" stroke-linejoin="round" stroke-linecap="butt" d="m405.59064 368.46646l2.2157288 -2.2157288l2.3537292 2.3537292l2.3537598 -2.3537292l2.2157288 2.2157288l-2.3537292 2.3537598l2.3537292 2.3537292l-2.2157288 2.2157288l-2.3537598 -2.3537292l-2.3537292 2.3537292l-2.2157288 -2.2157288l2.3537292 -2.3537292z" fill-rule="evenodd"/><path fill="#000000" d="m328.09195 329.4074l2.2157288 -2.2157288l2.3537292 2.3537292l2.3537598 -2.3537292l2.2157288 2.2157288l-2.3537292 2.3537598l2.3537292 2.3537292l-2.2157288 2.2157288l-2.3537598 -2.3537292l-2.3537292 2.3537292l-2.2157288 -2.2157288l2.3537292 -2.3537292z" fill-rule="evenodd"/><path fill="#000000" fill-opacity="0.0" d="m333.4987 332.19952c49.991333 -57.379913 195.60208 -79.389694 282.50967 -49.46399" fill-rule="evenodd"/><path stroke="#000000" stroke-width="1.0" stroke-linejoin="round" stroke-linecap="butt" stroke-dasharray="1.0,3.0" d="m333.4987 332.19952c24.995667 -28.689941 73.89615 -48.537354 127.411255 -57.47159c26.757507 -4.467102 54.66867 -6.2059326 81.322174 -4.9575806c13.326782 0.6241455 26.339111 1.9950867 38.735596 4.145172c6.198303 1.0750427 12.242615 2.3448792 18.095276 3.813507c2.9263306 0.7343445 5.8047485 1.5183716 8.630554 2.3526306c1.4129028 0.41711426 2.812622 0.84680176 4.1986694 1.289093l0.86572266 0.27890015" fill-rule="evenodd"/><path fill="#000000" stroke="#000000" stroke-width="1.0" stroke-linecap="butt" d="m612.7579 281.64966l-1.4229126 0.71032715l3.2868652 -0.087646484l-2.5742188 -2.0456238z" fill-rule="evenodd"/><path fill="#000000" fill-opacity="0.0" d="m628.17584 223.03674l42.992126 0l0 45.795288l-42.992126 0z" fill-rule="evenodd"/><path fill="#000000" d="m637.31647 249.95674l3.53125 -5.03125l-3.265625 -4.640625l2.046875 0l1.484375 2.265625q0.421875 0.640625 0.671875 1.078125q0.40625 -0.59375 0.734375 -1.0625l1.640625 -2.28125l1.953125 0l-3.34375 4.546875l3.59375 5.125l-2.015625 0l-1.984375 -3.0l-0.515625 -0.8125l-2.546875 3.8125l-1.984375 0z" fill-rule="nonzero"/><path fill="#000000" d="m651.1446 256.95676l-1.09375 0l0 -6.9687653q-0.40625 0.375 -1.046875 0.75q-0.640625 0.375 -1.140625 0.578125l0 -1.0625q0.90625 -0.4375 1.59375 -1.046875q0.6875 -0.609375 0.96875 -1.1875l0.71875 0l0 8.937515z" fill-rule="nonzero"/><path fill="#000000" fill-opacity="0.0" d="m622.86615 357.04987l42.992126 0l0 45.795288l-42.992126 0z" fill-rule="evenodd"/><path fill="#000000" d="m632.0068 383.96988l3.53125 -5.03125l-3.265625 -4.640625l2.046875 0l1.484375 2.265625q0.421875 0.640625 0.671875 1.078125q0.40625 -0.59375 0.734375 -1.0625l1.640625 -2.28125l1.953125 0l-3.34375 4.546875l3.59375 5.125l-2.015625 0l-1.984375 -3.0l-0.515625 -0.8125l-2.546875 3.8125l-1.984375 0z" fill-rule="nonzero"/><path fill="#000000" d="m647.4599 389.923l0 1.046875l-5.890625 0q-0.015625 -0.390625 0.125 -0.765625q0.234375 -0.59375 0.71875 -1.171875q0.5 -0.59375 1.4375 -1.359375q1.453125 -1.1875 1.953125 -1.875q0.515625 -0.703125 0.515625 -1.3125q0 -0.65625 -0.46875 -1.09375q-0.453125 -0.453125 -1.203125 -0.453125q-0.796875 0 -1.265625 0.46875q-0.46875 0.46875 -0.484375 1.3125l-1.125 -0.109375q0.125 -1.265625 0.875 -1.921875q0.75 -0.65625 2.015625 -0.65625q1.28125 0 2.03125 0.71875q0.75 0.703125 0.75 1.75q0 0.53125 -0.21875 1.046875q-0.21875 0.515625 -0.734375 1.09375q-0.5 0.5625 -1.671875 1.5625q-0.984375 0.828125 -1.265625 1.125q-0.28125 0.296875 -0.46875 0.59375l4.375 0z" fill-rule="nonzero"/><path fill="#000000" fill-opacity="0.0" d="m326.0 325.09973l42.992126 0l0 45.795288l-42.992126 0z" fill-rule="evenodd"/><path fill="#000000" d="m335.35938 352.01974l0 -1.328125l6.15625 -7.078125q-1.046875 0.0625 -1.84375 0.0625l-3.9375 0l0 -1.328125l7.90625 0l0 1.078125l-5.25 6.140625l-1.0 1.125q1.09375 -0.078125 2.0625 -0.078125l4.46875 0l0 1.40625l-8.5625 0zm10.09375 -11.59375l0 -1.890625l1.765625 0l0 1.5q0 1.21875 -0.28125 1.75q-0.390625 0.75 -1.21875 1.109375l-0.40625 -0.640625q0.484375 -0.203125 0.71875 -0.625q0.25 -0.4375 0.28125 -1.203125l-0.859375 0z" fill-rule="nonzero"/><path fill="#000000" fill-opacity="0.0" d="m413.72702 347.92258l42.992126 0l0 45.795258l-42.992126 0z" fill-rule="evenodd"/><path fill="#000000" d="m423.0864 374.84256l0 -1.328125l6.15625 -7.078125q-1.046875 0.0625 -1.84375 0.0625l-3.9375 0l0 -1.328125l7.90625 0l0 1.078125l-5.25 6.140625l-1.0 1.125q1.09375 -0.078125 2.0625 -0.078125l4.46875 0l0 1.40625l-8.5625 0z" fill-rule="nonzero"/><path fill="#000000" d="m438.32077 380.7957l0 1.046875l-5.890625 0q-0.015625 -0.390625 0.125 -0.765625q0.234375 -0.59375 0.71875 -1.171875q0.5 -0.59375 1.4375 -1.359375q1.453125 -1.1875 1.953125 -1.875q0.515625 -0.703125 0.515625 -1.3125q0 -0.65625 -0.46875 -1.09375q-0.453125 -0.453125 -1.203125 -0.453125q-0.796875 0 -1.265625 0.46875q-0.46875 0.46875 -0.484375 1.3125l-1.125 -0.109375q0.125 -1.265625 0.875 -1.921875q0.75 -0.65625 2.015625 -0.65625q1.28125 0 2.03125 0.71875q0.75 0.703125 0.75 1.75q0 0.53125 -0.21875 1.046875q-0.21875 0.515625 -0.734375 1.09375q-0.5 0.5625 -1.671875 1.5625q-0.984375 0.828125 -1.265625 1.125q-0.28125 0.296875 -0.46875 0.59375l4.375 0z" fill-rule="nonzero"/><path fill="#000000" fill-opacity="0.0" d="m270.3176 387.979l63.18109 0l0 45.795288l-63.18109 0z" fill-rule="evenodd"/><path fill="#000000" d="m280.55197 418.6021l0 -13.375l1.484375 0l0 1.25q0.53125 -0.734375 1.1875 -1.09375q0.671875 -0.375 1.625 -0.375q1.234375 0 2.171875 0.640625q0.953125 0.625 1.4375 1.796875q0.484375 1.15625 0.484375 2.546875q0 1.484375 -0.53125 2.671875q-0.53125 1.1875 -1.546875 1.828125q-1.015625 0.625 -2.140625 0.625q-0.8125 0 -1.46875 -0.34375q-0.65625 -0.34375 -1.0625 -0.875l0 4.703125l-1.640625 0zm1.484375 -8.484375q0 1.859375 0.75 2.765625q0.765625 0.890625 1.828125 0.890625q1.09375 0 1.875 -0.921875q0.78125 -0.9375 0.78125 -2.875q0 -1.84375 -0.765625 -2.765625q-0.75 -0.921875 -1.8125 -0.921875q-1.046875 0 -1.859375 0.984375q-0.796875 0.96875 -0.796875 2.84375zm12.016327 8.703125q-1.359375 -1.703125 -2.296875 -4.0q-0.9375 -2.296875 -0.9375 -4.765625q0 -2.15625 0.703125 -4.140625q0.828125 -2.3125 2.53125 -4.59375l1.171875 0q-1.09375 1.890625 -1.453125 2.703125q-0.546875 1.25 -0.875 2.625q-0.390625 1.703125 -0.390625 3.421875q0 4.375 2.71875 8.75l-1.171875 0zm2.212677 -3.921875l0 -1.328125l6.15625 -7.078125q-1.046875 0.0625 -1.84375 0.0625l-3.9375 0l0 -1.328125l7.90625 0l0 1.078125l-5.25 6.140625l-1.0 1.125q1.09375 -0.078125 2.0625 -0.078125l4.46875 0l0 1.40625l-8.5625 0zm11.28125 3.921875l-1.1875 0q2.734375 -4.375 2.734375 -8.75q0 -1.71875 -0.390625 -3.390625q-0.3125 -1.375 -0.875 -2.625q-0.359375 -0.828125 -1.46875 -2.734375l1.1875 0q1.703125 2.28125 2.53125 4.59375q0.6875 1.984375 0.6875 4.140625q0 2.46875 -0.9375 4.765625q-0.9375 2.296875 -2.28125 4.0z" fill-rule="nonzero"/><path fill="#000000" fill-opacity="0.0" d="m281.08646 397.0c-10.585846 -8.816925 -22.44461 -20.263641 -23.498688 -34.0c-0.7150879 -9.31897 9.64035 -17.318848 18.0 -21.498688" fill-rule="evenodd"/><path stroke="#000000" stroke-width="1.0" stroke-linejoin="round" stroke-linecap="butt" d="m281.08646 397.0c-10.585876 -8.816925 -22.44461 -20.263641 -23.498688 -34.0c-0.35754395 -4.659485 2.0525208 -8.989227 5.5969543 -12.676514c1.7722473 -1.8436584 3.8280334 -3.5267334 5.963257 -5.010132c1.067627 -0.7416687 2.1550903 -1.4334412 3.236908 -2.0704346l0.18902588 -0.110198975" fill-rule="evenodd"/><path fill="#000000" stroke="#000000" stroke-width="1.0" stroke-linecap="butt" d="m272.5739 343.13275l-0.4536438 1.5243225l2.1818848 -2.4598389l-3.2525635 0.48187256z" fill-rule="evenodd"/></g></svg>